<?xml version="1.0"?>
<svg xmlns="http://www.w3.org/2000/svg" xmlns:xlink="http://www.w3.org/1999/xlink" xmlns:svgjs="http://svgjs.com/svgjs" version="1.1" width="512" height="512" x="0" y="0" viewBox="0 0 512 512" style="enable-background:new 0 0 512 512" xml:space="preserve"><g><g xmlns="http://www.w3.org/2000/svg"><path d="m256 323.439c59.335 0 107.607-48.273 107.607-107.607 0-59.335-48.272-107.607-107.607-107.607s-107.607 48.272-107.607 107.607c-.001 59.334 48.272 107.607 107.607 107.607zm0-185.215c42.793 0 77.607 34.814 77.607 77.607 0 42.792-34.814 77.607-77.607 77.607s-77.607-34.815-77.607-77.607c-.001-42.792 34.814-77.607 77.607-77.607z" fill="#165081" data-original="#000000" style=""/><path d="m256 230.831h32.607c8.284 0 15-6.716 15-15s-6.716-15-15-15h-17.607v-17.607c0-8.284-6.716-15-15-15s-15 6.716-15 15v32.607c0 8.285 6.716 15 15 15z" fill="#165081" data-original="#000000" style=""/><path d="m348.656 353.439h-185.312c-8.284 0-15 6.716-15 15v67.265c0 8.284 6.716 15 15 15h185.312c8.284 0 15-6.716 15-15v-67.265c0-8.285-6.716-15-15-15zm-74.023 48.632c0 10.274-8.358 18.632-18.633 18.632-10.274 0-18.633-8.358-18.633-18.632s8.358-18.633 18.633-18.633c10.274.001 18.633 8.359 18.633 18.633zm-96.289-18.632h32.74c-2.391 5.742-3.717 12.035-3.717 18.633s1.326 12.89 3.717 18.632h-32.74zm155.312 37.265h-32.741c2.391-5.742 3.717-12.034 3.717-18.632s-1.326-12.891-3.717-18.633h32.741z" fill="#165081" data-original="#000000" style=""/><path d="m428.728 482h-5v-403.907h5c8.284 0 15-6.716 15-15s-6.716-15-15-15h-20-59.583c-5.997-15.19-20.823-25.964-38.12-25.964-4.353 0-8.588.67-12.592 1.954-8.644-14.465-24.464-24.083-42.408-24.083s-33.764 9.618-42.409 24.083c-4.003-1.283-8.239-1.954-12.591-1.954-17.296 0-32.123 10.773-38.12 25.964h-59.583-20.05c-8.284 0-15 6.716-15 15s6.716 15 15 15h5.05v403.907h-5.05c-8.284 0-15 6.716-15 15s6.716 15 15 15h345.456c8.284 0 15-6.716 15-15s-6.716-15-15-15zm-310.406-403.907h56.739c8.284 0 15-6.716 15-15 0-6.045 4.918-10.964 10.964-10.964 3.456 0 6.643 1.586 8.742 4.351 3.801 5.005 10.32 7.112 16.331 5.274 6.011-1.837 10.239-7.227 10.592-13.502.575-10.235 9.069-18.252 19.335-18.252s18.759 8.018 19.336 18.252c.353 6.275 4.582 11.665 10.593 13.502 6.016 1.837 12.53-.269 16.33-5.275 2.1-2.765 5.286-4.35 8.742-4.35 6.046 0 10.964 4.919 10.964 10.964 0 8.284 6.716 15 15 15h56.739v403.907h-275.407z" fill="#165081" data-original="#000000" style=""/></g></g></svg>
